<?xml version="1.0" standalone="no"?>
<!DOCTYPE svg PUBLIC "-//W3C//DTD SVG 1.1//EN" "http://www.w3.org/Graphics/SVG/1.1/DTD/svg11.dtd" >
<svg xmlns="http://www.w3.org/2000/svg">
<metadata></metadata>
<defs>
<font id="MelbourneLight" horiz-adv-x="628" >
<font-face units-per-em="2048" ascent="1536" descent="-512" />
<missing-glyph horiz-adv-x="430" />
<glyph horiz-adv-x="0" />
<glyph horiz-adv-x="2048" />
<glyph unicode=" "  horiz-adv-x="430" />
<glyph unicode="&#x09;" horiz-adv-x="430" />
<glyph unicode="&#xa0;" horiz-adv-x="430" />
<glyph unicode="!" horiz-adv-x="421" d="M113 12q0 -5 3 -8t6 -4h3h72q12 0 12 12v78q0 5 -3 8t-6 4h-3h-72q-12 0 -12 -12v-78zM137 336v1085q0 5 3.5 8.5t6.5 4.5h3h24q12 -1 12 -13v-1085q0 -5 -3 -8t-6 -4h-3h-24q-13 0 -13 12z" />
<glyph unicode="&#x22;" horiz-adv-x="555" d="M141 1421q0 5 3.5 8.5t6.5 4.5h3h71q13 -1 13 -13l-23 -219q-1 -5 -4 -8t-5 -4h-3h-27q-10 0 -12 12zM291 1421q0 5 3 8.5t6 4.5h3h72q12 -1 12 -13l-22 -219q-1 -5 -4 -8t-6 -4h-3h-26q-11 0 -13 12z" />
<glyph unicode="#" horiz-adv-x="1306" d="M41 315l6 29q2 8 12 10l293 -2l88 367h-336q-15 0 -10 10l6 29q3 8 13 10l340 -2l82 344l12 10h28q4 0 6 -0.5t4 -3t-1 -8.5l-82 -342h362l84 344q1 3 3 5t3.5 3t3 1.5t2.5 0.5h1h28q4 0 5.5 -0.5t3.5 -3t-1 -8.5l-82 -342h316q8 1 10 -2t0 -8l-6 -29q-2 -8 -14 -8h-318 l-86 -367h361q8 1 10 -2t0 -8l-6 -29q-3 -8 -15 -8h-362l-78 -328l-12 -10h-29q-12 0 -8 13l78 325h-365l-78 -328l-12 -10h-29q-12 0 -8 13l78 325h-291q-15 0 -10 10zM401 352h365l88 367h-365z" />
<glyph unicode="$" horiz-adv-x="993" d="M90 389q0 5 3 8t6 3l3 1h25q12 0 12 -12q0 -157 95 -250.5t235 -101.5v692l-141 76q-222 117 -222 299q0 154 103 245t260 97v141q0 5 3 8t6 3l3 1h25q12 0 12 -12v-139q167 -7 257 -97t112 -233q1 -5 -1 -9t-4 -5l-3 -2l-25 -6q-12 0 -14 10q-22 137 -95.5 212 t-226.5 81v-641l127 -70q258 -140 258 -332q0 -162 -101.5 -261.5t-283.5 -106.5v-154q0 -5 -3 -8t-6 -4h-3h-25q-12 0 -12 12v156q-52 3 -102 16t-101 43t-89.5 73.5t-62.5 112.5t-24 154zM156 1098q0 -68 43.5 -129t124.5 -105l145 -80v615q-74 -3 -131 -24t-90.5 -51.5 t-55 -71t-29 -78t-7.5 -76.5zM518 37q164 6 250 96t86 223q0 49 -21 94.5t-59.5 84t-82 69t-99.5 60.5l-74 38v-665z" />
<glyph unicode="%" horiz-adv-x="1198" d="M119 924v276q0 92 44 147.5t124 55.5q78 0 124 -56t46 -147v-276q0 -89 -46.5 -145t-123.5 -56q-80 0 -124 55.5t-44 145.5zM162 944q0 -84 34.5 -130t90.5 -46t90.5 46t34.5 130v238q0 86 -34.5 132t-90.5 46q-58 0 -91.5 -45.5t-33.5 -132.5v-238zM308 3.5 q-2 2.5 1 8.5l475 1411q2 4 5 7t5 4h3h28q13 0 9 -13l-476 -1411l-12 -10h-29q-4 0 -5.5 0.5t-3.5 3zM670 201v276q0 92 44 147.5t124 55.5q78 0 124 -56t46 -147v-276q0 -89 -46.5 -145t-123.5 -56q-80 0 -124 55.5t-44 145.5zM713 221q0 -84 34.5 -130t90.5 -46t90.5 46 t34.5 130v238q0 86 -34.5 132t-90.5 46q-58 0 -91.5 -45.5t-33.5 -132.5v-238z" />
<glyph unicode="&#x26;" horiz-adv-x="1208" d="M162 261q-16 78 6 149.5t65.5 134.5t106.5 119l141 124l-63 93q-66 119 -48 214.5t95 156t178 61.5q117 2 190.5 -69t73.5 -206q0 -6 -3 -9.5t-6 -4.5h-3h-23q-12 0 -12 14q0 106 -56 167t-157 61q-92 0 -157 -52.5t-74.5 -133.5t49.5 -179l383 -582q8 8 28.5 30t32 33 t30.5 25.5t37.5 21t39.5 7.5h43q5 -1 8 -4t3 -6l1 -2v-25q-4 -12 -14 -12h-31q-22 0 -44.5 -12t-35.5 -23.5t-38 -39t-34 -36.5q17 -26 43 -65t36.5 -55t28.5 -40.5t27.5 -33t23.5 -19.5t27.5 -13.5t29.5 -2.5h36q6 0 10 -3t4 -6l1 -3v-23q-1 -12 -15 -12h-45q-23 -1 -45 8 t-38 21t-37.5 39t-35 47t-41 62t-44.5 67l-140 -146q-106 -114 -235 -112.5t-229 125.5q-58 72 -74 150zM211 379q-27 -132 65 -242q53 -62 109 -87.5t107 -16t95 36t85 69.5l143 150l-303 463l-139 -123q-135 -118 -162 -250z" />
<glyph unicode="'" horiz-adv-x="284" d="M80 1421q0 5 3 8.5t6 4.5h3h72q12 -1 12 -13l-22 -219q-1 -5 -4 -8t-6 -4h-3h-26q-11 0 -13 12z" />
<glyph unicode="(" horiz-adv-x="651" d="M164 588v278q0 150 17.5 279.5t46 224t69 173.5t82 130.5t90.5 91.5q4 4 8.5 4t6.5 -2l3 -2l15 -16q8 -8 -2 -16q-55 -42 -102 -107t-92 -166t-71 -254t-26 -340v-278q0 -187 26 -340t71 -254t92 -166t102 -107q4 -4 4.5 -8t-0.5 -6l-2 -2l-15 -16q-8 -10 -18 0 q-49 40 -90.5 91.5t-82 130.5t-69 173.5t-46 224t-17.5 279.5z" />
<glyph unicode=")" horiz-adv-x="716" d="M169.5 1741q-0.5 4 0.5 6l2 2l14 16q9 10 19 0q49 -40 90.5 -91.5t82 -130.5t69 -173.5t46 -224t17.5 -279.5v-278q0 -150 -17.5 -279.5t-46 -224t-69 -173.5t-82 -130.5t-90.5 -91.5q-4 -4 -9 -4t-8 2l-2 2l-14 16q-8 8 2 16q55 42 102 107t92 166t71 254t26 340v278 q0 187 -26 340t-71 254t-92 166t-102 107q-4 4 -4.5 8z" />
<glyph unicode="*" horiz-adv-x="600" d="M40 1410l1 3l8 21l1 1q0 1 1.5 2.5t3.5 2.5t5 2t6 0l182 -58v197q0 5 3 8t6 3l3 1h23q12 0 12 -12v-195l178 56q4 2 7.5 0t5.5 -5l1 -3l9 -21q1 -12 -9 -16l-178 -62l113 -155q3 -4 3 -8t-3 -6l-2 -3l-19 -14q-10 -4 -18 4l-113 154l-108 -150q-3 -4 -7 -5t-7 0l-3 1 l-18 14q-1 1 -2 2.5t-2 7t2 9.5l111 149l-187 64q-5 1 -7 4.5t-2 6.5z" />
<glyph unicode="+" horiz-adv-x="643" d="M18 537v24q1 12 13 12h266v277q0 5 3 8t6 4h3h25q12 0 12 -12v-277h266q5 0 8.5 -3t3.5 -6l1 -3v-24q-1 -13 -13 -13h-266v-272q0 -5 -3 -9t-6 -5l-3 -2h-25q-12 0 -12 12v276h-262q-5 0 -9.5 3t-5.5 7z" />
<glyph unicode="," horiz-adv-x="286" d="M100 -113q1 9 9 9h4q28 0 41.5 22.5t13.5 81.5h-29q-12 0 -12 12v78q0 5 3 8t6 4h3h72q12 0 12 -12v-78q0 -149 -110 -149h-4q-4 0 -6 2t-3 4v2v16z" />
<glyph unicode="-" d="M106 537v24q1 12 13 12h395q5 0 8 -3t4 -6v-3v-24q0 -13 -12 -13h-391q-5 0 -9.5 3t-5.5 7z" />
<glyph unicode="." horiz-adv-x="346" d="M90 12v78q0 5 3 8t6 4h3h72q12 0 12 -12v-78q0 -5 -3 -8t-6 -4h-3h-72q-12 0 -12 12z" />
<glyph unicode="/" horiz-adv-x="671" d="M14 -59l525 1554l12 10h29q4 0 5.5 -0.5t3.5 -3t-1 -8.5l-525 -1554q-2 -4 -5 -7t-5 -4h-2h-28q-13 0 -9 13z" />
<glyph unicode="0" horiz-adv-x="970" d="M123 406v622q0 192 87 306t263 114q175 0 262.5 -114t87.5 -306v-622q0 -192 -87.5 -306t-262.5 -114q-176 0 -263 114t-87 306zM170 406q0 -193 82.5 -283t220.5 -90q136 0 219.5 90t83.5 283v622q0 103 -23 177t-66 116t-95.5 61t-118.5 19q-303 0 -303 -373v-622z" />
<glyph unicode="1" horiz-adv-x="862" d="M72 9v3v23q0 12 12 12h248v1339h-111q-5 0 -8 3t-3 7l-1 3v22q0 13 12 13h146q12 -1 12 -13v-1374h248q5 0 8 -3t3 -6l1 -3v-23q0 -12 -12 -12h-543q-5 0 -8 3t-4 6z" />
<glyph unicode="2" horiz-adv-x="884" d="M94 9v3v37q2 15 8 23l435 606q61 86 91 137t50 115t20 135q0 49 -7.5 94t-27.5 90.5t-50.5 78t-80.5 53t-114 20.5q-130 0 -195 -79.5t-65 -207.5q0 -5 -3 -8t-7 -4h-3h-24q-12 0 -12 12q0 162 83 248t226 86q68 0 122.5 -18.5t89 -51.5t58.5 -71t36 -84t16.5 -83 t4.5 -75q0 -96 -33 -183.5t-112 -199.5l-455 -635h615q5 0 8 -3t4 -6v-3v-23q0 -12 -12 -12h-654q-5 0 -8 3t-4 6z" />
<glyph unicode="3" horiz-adv-x="946" d="M102 332q0 5 3 8t7 4h3h22q13 0 13 -12q6 -152 77 -225.5t197 -73.5q140 0 218.5 91t78.5 253q0 97 -20 166.5t-55.5 105.5t-74.5 52t-86 16h-14q-5 0 -8 3t-3 6l-1 3v23q0 12 12 12h16q61 0 105.5 27.5t69 75.5t36 105t11.5 124q0 78 -23.5 139t-62 96t-82.5 52.5 t-90 17.5q-129 0 -196 -70t-73 -182q0 -5 -3 -8t-6 -3l-3 -1h-25q-12 0 -12 12q4 142 90 220.5t228 78.5q72 0 128.5 -25t89 -62t53.5 -86.5t28.5 -92.5t7.5 -86q0 -52 -7.5 -101t-26 -104.5t-59 -96t-98.5 -55.5q47 -10 82.5 -32.5t57 -55.5t35 -65.5t19.5 -75t7.5 -70 t1.5 -63.5q0 -77 -18 -143.5t-56.5 -123.5t-108 -90.5t-163.5 -33.5q-75 0 -133 22t-92.5 56t-56.5 82t-30.5 92t-9.5 94z" />
<glyph unicode="4" horiz-adv-x="972" d="M72 387v37q0 20 12 43l432 954q7 13 19 13h77q5 0 8.5 -3t3.5 -7l1 -3v-999h157q5 0 8.5 -3t3.5 -6l1 -3v-23q-1 -12 -13 -12h-155v-363q0 -5 -3.5 -8t-6.5 -4h-3h-24q-12 0 -12 12v363h-494q-12 0 -12 12zM121 422h457v964h-25l-432 -950v-14z" />
<glyph unicode="5" horiz-adv-x="915" d="M82 367q0 12 12 12h23q5 0 8 -3t3 -6l1 -3q1 -78 18.5 -137.5t45 -96t66 -60t77 -32t82.5 -8.5q131 0 213 98t82 277v137q0 172 -79 260t-216 88q-115 0 -186.5 -41.5t-102.5 -136.5q0 -13 -12 -13h-23q-5 0 -8 3t-4 7v3v706q0 5 3 8.5t6 4.5h3h553q5 0 8 -3t3 -7l1 -3 v-24q0 -13 -12 -13h-518v-587q17 43 54.5 73.5t83 44.5t82 19.5t69.5 5.5q157 0 249.5 -105.5t92.5 -285.5v-141q0 -196 -90 -309t-252 -113q-161 0 -246 98.5t-90 282.5z" />
<glyph unicode="6" horiz-adv-x="933" d="M106 408v606q0 215 94.5 324.5t256.5 109.5q88 0 155 -27.5t108.5 -77t62 -113.5t20.5 -140q0 -5 -3 -8.5t-6 -3.5l-3 -1h-23q-12 1 -12 13q-6 154 -88 232.5t-211 78.5q-57 0 -107 -18t-96.5 -59.5t-74 -120.5t-27.5 -189v-355q17 59 55 103.5t85.5 67t91.5 32.5t85 10 q172 0 258 -102.5t86 -286.5v-75q0 -191 -94 -306.5t-273 -115.5q-158 0 -249 117.5t-91 304.5zM152 408q0 -181 83.5 -278t210.5 -97q151 0 235.5 98.5t84.5 276.5v71q0 171 -74.5 258.5t-220.5 87.5q-33 0 -66.5 -5t-81.5 -26t-83.5 -56t-61.5 -102t-26 -157v-71z" />
<glyph unicode="7" horiz-adv-x="825" d="M37 1399v22q0 13 12 13h643q13 -1 13 -13v-75q0 -112 -60 -254l-457 -1082l-12 -10h-29q-14 0 -8 12l469 1100q45 105 49 225v49h-608q-5 0 -8 3t-3 7z" />
<glyph unicode="8" horiz-adv-x="921" d="M102 389q0 154 61.5 250t164.5 123q-63 17 -106.5 74t-61 124.5t-17.5 139.5q0 348 310 348q309 0 309 -348q0 -72 -17.5 -139.5t-60.5 -125t-106 -73.5q103 -27 164 -123t61 -250q0 -52 -10.5 -105t-36 -107.5t-64 -96t-100.5 -68t-139 -26.5t-139 26.5t-100.5 68 t-64.5 96t-36.5 107.5t-10.5 105zM150 389q0 -90 26 -160.5t69.5 -112t96.5 -62.5t111 -21t111 21t96.5 62.5t69.5 112t26 160.5q0 155 -79.5 251.5t-223.5 96.5t-223.5 -96.5t-79.5 -251.5zM190 1100q0 -79 19 -138.5t47 -92.5t66 -53t68.5 -26t62.5 -6t62.5 6t68 26 t65.5 53t47 92.5t19 138.5q0 157 -69.5 229t-192.5 72t-193 -72t-70 -229z" />
<glyph unicode="9" horiz-adv-x="942" d="M102 969v59q0 208 90 314t259 106q162 0 261 -114.5t99 -305.5v-618q0 -195 -95 -309.5t-261 -114.5q-154 0 -241 97.5t-93 250.5q0 12 12 12h23q5 0 8 -3t4 -6v-3q6 -149 91.5 -225t195.5 -76q139 0 224 97.5t85 279.5v374q-37 -104 -117.5 -155t-187.5 -51 q-95 0 -166 31.5t-111.5 87t-60 123.5t-19.5 149zM150 973q0 -175 84 -261.5t225 -86.5q143 0 224 94t81 270v39q0 173 -92.5 273t-220.5 100q-135 0 -218 -91t-83 -282v-55z" />
<glyph unicode=":" horiz-adv-x="360" d="M90 12v78q0 5 3 8t6 4h3h72q12 0 12 -12v-78q0 -5 -3 -8t-6 -4h-3h-72q-12 0 -12 12zM90 662v77q0 5 3 8.5t6 4.5h3h72q12 -1 12 -13v-77q0 -5 -3 -8.5t-6 -3.5l-3 -1h-72q-12 1 -12 13z" />
<glyph unicode=";" horiz-adv-x="376" d="M100 -113q1 9 9 9h4q28 0 41.5 22.5t13.5 81.5h-29q-12 0 -12 12v78q0 5 3 8t6 4h3h72q12 0 12 -12v-78q0 -149 -110 -149h-4q-4 0 -6 2t-3 4v2v16zM127 662v77q0 5 3 8.5t6 4.5h3h72q12 -1 12 -13v-77q0 -5 -3 -8.5t-6 -3.5l-3 -1h-72q-12 1 -12 13z" />
<glyph unicode="&#x3c;" horiz-adv-x="667" />
<glyph unicode="=" horiz-adv-x="993" d="M133 389v25q0 12 12 12h703q5 0 8 -3t4 -6v-3v-25q0 -12 -12 -12h-698q-5 0 -9.5 3t-6.5 6zM133 688v25q0 12 12 12h703q5 0 8 -3t4 -6v-3v-25q0 -12 -12 -12h-698q-5 0 -9.5 3t-6.5 6z" />
<glyph unicode="&#x3e;" horiz-adv-x="667" />
<glyph unicode="?" horiz-adv-x="765" d="M20 1178q0 -5 3 -8.5t5 -3.5l3 -1h26q11 3 11 15q24 221 243 221q141 0 209 -81.5t68 -209.5q0 -39 -9 -76t-17.5 -58.5t-32.5 -54t-31.5 -41t-36.5 -40.5q-47 -53 -69.5 -81t-50.5 -70t-39 -80t-11 -81v-161q0 -5 2.5 -8.5t4.5 -4.5h3h27q10 1 10 13v161q0 69 34 125 t101 129q85 92 122 159.5t40 168.5q3 146 -79 242t-241 96q-267 0 -295 -270zM266 12q0 -5 3 -8t7 -4h3h71q12 0 12 12v78q0 5 -3 8t-6 4h-3h-71q-13 0 -13 -12v-78z" />
<glyph unicode="@" horiz-adv-x="1441" d="M113 496v151q0 59 6 114t22 114.5t40.5 110t64.5 96.5t92 78.5t125 51.5t160 19q175 0 300.5 -79.5t185.5 -210.5t58 -298l-2 -151q-3 -200 -133 -325.5t-358 -125.5q-132 0 -225 67t-93 164q0 107 47 157t177 81l329 82v90q0 132 -69 208.5t-195 76.5 q-121 0 -183.5 -53.5t-62.5 -176.5q0 -5 -3 -8t-6 -3l-3 -1h-25q-12 0 -12 12q0 135 78.5 206t216.5 71q144 0 228.5 -91t84.5 -241v-414q0 -5 -3 -8t-6 -4h-3h-24q-13 0 -13 12l2 273l-338 -82q-47 -11 -79 -25.5t-49 -28.5t-26 -35.5t-11 -38.5t-2 -44q0 -94 76.5 -146.5 t191.5 -52.5q95 0 172 24t126.5 63.5t83 92.5t48 109t14.5 115v151q0 260 -135.5 400.5t-359.5 140.5t-342.5 -133t-118.5 -404v-151v-7q0 -66 1 -102t9.5 -103t25 -108.5t50 -97.5t80.5 -92t121 -69t169 -50q5 -1 8 -5t3 -8v-4l-4 -22l-1 -1q0 -1 -1.5 -3t-3.5 -3.5 t-5 -2.5t-6 0q-79 16 -144.5 41.5t-113 54t-85.5 68t-62.5 75t-42 84.5t-26.5 86.5t-14 91t-6 89t-1 88.5z" />
<glyph unicode="A" horiz-adv-x="1054" d="M92 12l402 1409q2 5 6 8.5t7 4.5h3h49q12 -1 16 -13l388 -1409q0 -5 -3.5 -8t-6.5 -4h-3h-18q-15 0 -19 12l-153 543h-461l-158 -543q-2 -5 -6.5 -8t-8.5 -4h-3h-19q-12 0 -12 12zM307 604h443l-207 780h-17z" />
<glyph unicode="B" horiz-adv-x="1044" d="M164 0v1434h282q213 0 313.5 -86t100.5 -267q0 -72 -23.5 -130t-63.5 -95.5t-86 -60t-99 -33.5q147 -6 230 -110.5t83 -256.5q0 -82 -23.5 -152t-71.5 -125t-129 -86.5t-188 -31.5h-325zM213 47h276q100 0 173.5 29t113.5 80t58 109t18 126q0 51 -7 94t-30.5 91 t-61.5 81.5t-105.5 55.5t-158.5 22h-276v-688zM213 782h215q181 0 282 73.5t101 225.5q0 93 -27 155t-80 94t-113.5 44t-144.5 12h-233v-604z" />
<glyph unicode="C" horiz-adv-x="1069" d="M143 434v567q0 96 23 175t70 141t125.5 96.5t183.5 34.5q163 0 252.5 -78.5t122.5 -243.5q1 -5 -1.5 -9t-4.5 -5l-3 -2l-24 -6q-13 0 -15 10q-36 155 -109 221t-218 66q-170 0 -261 -99t-91 -303v-565q0 -401 354 -401q179 0 255.5 98t76.5 311q0 5 3 8.5t6 3.5l3 1h24 q13 -1 13 -13q0 -104 -19 -183.5t-61.5 -142.5t-118 -96.5t-182.5 -33.5t-186.5 34.5t-126 96.5t-69 141t-22.5 176z" />
<glyph unicode="D" horiz-adv-x="1103" d="M164 0v1434h377q102 0 178 -31.5t121.5 -89.5t67.5 -136t22 -176v-569q0 -93 -22 -170t-67.5 -136.5t-121.5 -92.5t-178 -33h-377zM213 47h328q162 0 251 95.5t89 289.5v569q0 385 -340 385h-328v-1339z" />
<glyph unicode="E" horiz-adv-x="1030" d="M164 0v1434h665q5 0 8.5 -3t4.5 -7v-3v-22q-1 -13 -13 -13h-616v-630h473q5 0 8 -3t4 -7v-3v-20q0 -12 -12 -14h-473v-662h616q5 0 8.5 -3t4.5 -6v-3v-23q-1 -12 -13 -12h-665z" />
<glyph unicode="F" horiz-adv-x="989" d="M164 12v1422h665q5 0 8.5 -3t4.5 -7v-3v-22q-1 -13 -13 -13h-616v-630h473q5 0 8 -3t4 -7v-3v-20q0 -12 -12 -14h-473v-697q0 -5 -3 -8t-6 -4h-3h-25q-12 0 -12 12z" />
<glyph unicode="G" horiz-adv-x="1058" d="M123 434v567q0 96 23 175t69.5 141t125 96.5t183.5 34.5q162 0 252 -78.5t123 -243.5q1 -5 -1 -9t-4 -5l-3 -2l-25 -6q-12 0 -14 10q-36 155 -109.5 221t-218.5 66q-170 0 -261 -99t-91 -303v-565q0 -401 354 -401q178 0 255 99t77 312v158h-371q-5 0 -8 3t-3 6l-1 3v23 q0 12 12 12h400q2 0 5.5 -0.5t9 -5.5t5.5 -14v-185q0 -104 -19 -184t-61.5 -143.5t-118 -97t-182.5 -33.5t-186 34.5t-125.5 96.5t-69 141t-22.5 176z" />
<glyph unicode="H" horiz-adv-x="1140" d="M164 12v1409q0 5 3 8.5t6 4.5h3h23q12 -1 12 -13v-665h680v665q0 5 3 8.5t6 4.5h3h23q12 -1 12 -13v-1409q0 -5 -3 -8t-6 -4h-3h-23q-12 0 -12 12v697h-680v-697q0 -5 -3 -8t-6 -4h-3h-23q-12 0 -12 12z" />
<glyph unicode="I" horiz-adv-x="452" d="M164 12v1409q0 5 3 8.5t6 4.5h3h25q12 -1 12 -13v-1409q0 -5 -3 -8t-6 -4h-3h-25q-12 0 -12 12z" />
<glyph unicode="J" horiz-adv-x="716" d="M92 -2v22q0 13 12 13q48 0 98.5 10t108 38.5t102 71.5t74 116.5t29.5 166.5v985q0 5 3 8.5t6 4.5h3h25q12 -1 12 -13v-985q0 -205 -126.5 -327.5t-334.5 -122.5q-5 0 -8 3t-4 6v3z" />
<glyph unicode="K" horiz-adv-x="1116" d="M164 12v1409q0 5 3 8.5t6 4.5h3h25q12 -1 12 -13v-831l596 837l10 7h37q14 0 6 -13l-424 -608l340 -639q36 -69 71 -98t85 -29h43q5 0 8 -3t3 -6l1 -3v-23q0 -12 -12 -12h-45q-68 0 -111.5 40t-85.5 120l-329 610l-193 -266v-492q0 -5 -3 -8t-6 -4h-3h-25q-12 0 -12 12z " />
<glyph unicode="L" horiz-adv-x="876" d="M164 0v1421q0 5 3 8.5t6 4.5h3h25q12 -1 12 -13v-1374h578q5 0 8 -3t3 -6l1 -3v-23q0 -12 -12 -12h-627z" />
<glyph unicode="M" horiz-adv-x="1241" d="M164 12v1409q0 5 3 8.5t6 4.5h3h49q15 -1 19 -13l344 -725l340 725q2 5 6.5 8.5t7.5 4.5h4h49q13 -1 13 -13v-1409q0 -5 -3 -8t-7 -4h-3h-24q-13 0 -13 12v1354l-344 -725q-2 -5 -6 -8t-7 -3l-3 -1h-20q-13 0 -17 12l-348 725v-1354q0 -5 -3 -8t-6 -4h-3h-25 q-12 0 -12 12z" />
<glyph unicode="N" horiz-adv-x="1159" d="M164 12v1409q0 5 3 8.5t6 4.5h3h51q13 -1 19 -13l665 -1376l-2 1376q0 5 3.5 8.5t6.5 4.5h3h24q12 -1 12 -13v-1409q0 -5 -3 -8t-6 -4h-3h-57q-13 0 -19 12l-663 1385l6 -1385q0 -5 -3 -8t-6 -4h-3h-25q-12 0 -12 12z" />
<glyph unicode="O" horiz-adv-x="1101" d="M143 420v594q0 434 389 434q390 0 390 -434v-594q0 -434 -390 -434q-389 0 -389 434zM193 420q0 -201 85.5 -294t253.5 -93t254 93t86 294v594q0 201 -86 294t-254 93t-253.5 -93t-85.5 -294v-594z" />
<glyph unicode="P" horiz-adv-x="1040" d="M164 12v1422h301q200 0 296.5 -110.5t96.5 -299.5v-57q0 -190 -96 -300t-297 -110h-252v-545q0 -5 -3 -8t-6 -4h-3h-25q-12 0 -12 12zM213 604h252q164 0 254 88.5t90 274.5v57q0 185 -90 273.5t-254 88.5h-252v-782z" />
<glyph unicode="Q" horiz-adv-x="1146" d="M143 420v594q0 214 98.5 324t290.5 110t291 -110t99 -324v-594q0 -183 -70 -289q39 -49 65 -66.5t62 -17.5h39q5 0 8 -3t4 -6v-3v-23q0 -12 -12 -12h-47q-42 0 -77 22t-71 72q-97 -108 -291 -108q-389 0 -389 434zM193 420q0 -201 85.5 -294t253.5 -93q177 0 259 98 l-207 262q-3 4 0 7t8 3h39q6 0 10 -6l178 -227q53 92 53 250v594q0 196 -83.5 291.5t-256.5 95.5t-256 -95.5t-83 -291.5v-594z" />
<glyph unicode="R" horiz-adv-x="1110" d="M166 12v1422h334q178 0 274 -100t96 -279v-11q0 -191 -72.5 -287.5t-211.5 -119.5l223 -463q31 -54 81 -89.5t103 -35.5h4q5 0 8.5 -3t4.5 -6v-3v-25q-1 -12 -13 -12h-6q-55 0 -105 29.5t-76 60t-46 64.5l-227 477h-322v-619q0 -5 -3 -8t-6 -4h-3h-25q-12 0 -12 12z M215 678h287q178 0 248.5 91t70.5 275v11q0 165 -87.5 248t-233.5 83h-285v-708z" />
<glyph unicode="S" horiz-adv-x="995" d="M90 389q0 5 3 8t6 3l3 1h25q12 0 12 -12q0 -164 103.5 -258t251.5 -94q177 0 268.5 90.5t91.5 228.5q0 49 -21 94.5t-59.5 84t-82 69t-99.5 60.5l-264 141q-222 117 -222 299q0 160 111.5 252t276.5 92q179 0 275 -90.5t118 -239.5q1 -5 -1 -9t-4 -5l-3 -2l-25 -6 q-12 0 -14 10q-22 142 -100.5 217.5t-245.5 75.5q-79 0 -140.5 -20t-98 -50.5t-59.5 -72t-31.5 -79.5t-8.5 -79q0 -68 43.5 -129t124.5 -105l321 -176q258 -140 258 -332q0 -167 -108 -267.5t-301 -100.5q-52 0 -104.5 11.5t-107.5 40.5t-96.5 73t-68.5 115.5t-27 160.5z " />
<glyph unicode="T" horiz-adv-x="985" d="M82 1396v3v22q0 13 12 13h799q5 0 8 -3t3 -7l1 -3v-22q0 -13 -12 -13h-375v-1374q0 -5 -3 -8t-6 -4h-3h-25q-12 0 -12 12v1374h-375q-5 0 -8 3t-4 7z" />
<glyph unicode="U" horiz-adv-x="1073" d="M133 514v907q0 5 3 8.5t6 4.5h3h25q12 -1 12 -13v-907q0 -243 83 -362t259 -119q161 0 248.5 121.5t87.5 359.5v907q0 5 3 8.5t6 4.5h3h25q12 -1 12 -13v-907q0 -113 -20.5 -205t-64.5 -166.5t-120.5 -115.5t-179.5 -41q-391 0 -391 528z" />
<glyph unicode="V" horiz-adv-x="1095" d="M80 1421q-1 3 -1 6q0 7 7 7h33q9 0 12 -11l391 -1374h8l379 1374q3 11 13 11h30q7 0 7 -7q0 -2 -1 -6l-391 -1409q-2 -5 -6 -8t-7 -4h-3h-49q-13 0 -17 12z" />
<glyph unicode="W" horiz-adv-x="1542" d="M90 1421q-1 3 -1 6q0 7 7 7h33q9 0 12 -11l281 -1378l276 1190q1 5 4.5 8t7.5 3l3 1h37q12 0 14 -12l276 -1188l279 1376q3 11 12 11h33q7 0 7 -7q0 -2 -1 -6l-289 -1409q-1 -5 -5 -8t-8 -4h-3h-49q-13 0 -17 12l-268 1153l-268 -1153q-2 -5 -6 -8t-7 -4h-4h-49 q-12 0 -16 12z" />
<glyph unicode="X" horiz-adv-x="1169" d="M91 2.5q0 2.5 3 9.5l430 764l-358 645q-6 13 6 13h31q10 0 14 -11l334 -608l340 608q4 11 14 11h31q12 0 6 -13l-364 -647l436 -762q3 -4 3 -7q0 -5 -9 -5h-31q-8 0 -14 10l-412 721l-406 -721q-6 -10 -16 -10h-31q-7 0 -7 2.5z" />
<glyph unicode="Y" horiz-adv-x="1103" d="M94 1421q-2 4 -2 7q0 6 8 6h33q9 0 12 -11l365 -919h10l332 919q4 11 14 11h31q8 0 8 -6q0 -3 -2 -7l-510 -1411q-5 -10 -12 -10h-33q-9 0 -6 12l154 441h-11q-6 0 -8 8z" />
<glyph unicode="Z" horiz-adv-x="1099" d="M133 12v37q0 11 6 19l758 1318h-752q-5 0 -8 3t-3 7l-1 3v22q0 13 12 13h789q5 0 8 -3t4 -7v-3v-51q0 -10 -6 -18l-758 -1305h772q5 0 8.5 -3t3.5 -6l1 -3v-23q-1 -12 -13 -12h-809q-5 0 -8 3t-3 6z" />
<glyph unicode="\" horiz-adv-x="593" d="M-72 1493q-3 8 0 10t9 2h28q8 0 12 -10l525 -1554q4 -13 -8 -13h-29q-8 1 -12 11z" />
<glyph unicode="a" horiz-adv-x="882" d="M92 238q0 110 51.5 172t178.5 92l356 82v123q0 132 -69 208t-195 76q-121 0 -183.5 -53t-62.5 -176q0 -5 -3 -8t-6 -4h-3h-25q-12 0 -12 12q0 135 78.5 205.5t216.5 70.5q144 0 228.5 -90.5t84.5 -240.5v-695q0 -5 -3 -8t-6 -4h-3h-25q-12 0 -12 12v160 q-31 -89 -109.5 -137.5t-193.5 -48.5q-132 0 -207.5 67.5t-75.5 184.5zM141 252q0 -219 234 -219q147 0 226 83.5t79 207.5v208l-365 -81q-57 -13 -94 -35t-53.5 -51t-21.5 -54t-5 -59z" />
<glyph unicode="b" horiz-adv-x="940" d="M143 12v1409q0 5 3.5 8.5t6.5 4.5h3h22q12 -1 12 -13v-565q7 24 27 53t53.5 59t86.5 50t114 20q135 0 219 -87t84 -244v-404q0 -140 -84.5 -228.5t-208.5 -88.5q-120 0 -195 54.5t-96 121.5v-150q0 -5 -3 -8t-6 -4h-3h-22q-13 0 -13 12zM188 303q0 -28 7 -60t27 -70.5 t51 -68.5t84 -50.5t120 -20.5q112 0 180 81t68 187v406q0 128 -68.5 206t-185.5 78q-130 0 -206.5 -84t-76.5 -200v-404z" />
<glyph unicode="c" horiz-adv-x="923" d="M133 354v303q0 179 80.5 280t243.5 101q70 0 124.5 -21t86.5 -56t50.5 -72.5t26.5 -79.5q2 -10 -6 -14l-28 -7q-13 -1 -15 9q-6 35 -19 65t-39 61t-72.5 49.5t-108.5 18.5q-135 0 -205 -84.5t-70 -249.5v-303q0 -142 67.5 -231.5t201.5 -89.5q67 0 119 22.5t82 60 t45.5 80.5t15.5 89q0 5 3 8t6 3l3 1h25q12 0 12 -12q0 -50 -17 -100t-51.5 -96t-97.5 -74.5t-145 -28.5q-107 0 -180.5 50.5t-105.5 131.5t-32 186z" />
<glyph unicode="d" horiz-adv-x="907" d="M102 303v406q0 143 80 236t228 93q105 0 179.5 -54.5t96.5 -127.5v565q0 5 3 8.5t6 4.5h3h23q12 -1 12 -13v-1409q0 -5 -3 -8t-6 -4h-3h-23q-12 0 -12 12v150q-29 -84 -106 -130t-181 -46q-130 0 -213.5 90.5t-83.5 226.5zM150 303q0 -106 69 -188t180 -82q67 0 120 19.5 t84 49t51 68t27 71t7 62.5v404q0 116 -75 200t-205 84q-118 0 -188 -78.5t-70 -205.5v-404z" />
<glyph unicode="e" horiz-adv-x="925" d="M133 285v428q0 147 82.5 236t251.5 89q129 0 213 -73t84 -197v-168q0 -12 -14 -14l-568 -111v-192q0 -114 70.5 -182t196.5 -68q122 0 194 60t72 169q0 5 3 8t6 4h3h23q12 0 12 -12q0 -127 -88.5 -201.5t-224.5 -74.5q-145 0 -230.5 83t-85.5 216zM182 524l535 105v133 q0 112 -73 170.5t-189 58.5q-74 0 -129.5 -25t-85.5 -66.5t-44 -89t-14 -99.5v-187z" />
<glyph unicode="f" horiz-adv-x="616" d="M133 971v22q0 13 12 13h103v135q0 157 58.5 225t205.5 68h29q5 0 8 -3t3 -7l1 -3v-22q0 -13 -12 -13h-29q-69 0 -113 -15t-66.5 -48.5t-30 -74.5t-7.5 -107v-135h270q5 0 8.5 -3t4.5 -7v-3v-22q-1 -13 -13 -13h-270v-946q0 -5 -3 -8t-6 -4h-3h-23q-12 0 -12 12v946h-103 q-5 0 -8 3t-3 7z" />
<glyph unicode="g" horiz-adv-x="987" d="M94 121q-4 14 -4 28q0 39 29 80l94 133q-107 91 -107 256v68q0 169 78.5 260.5t227.5 91.5h188q69 0 99.5 12.5t56.5 51.5q4 4 8 4q1 1 2 1q3 0 4 -1l2 -2l19 -14q8 -9 0 -21q-36 -45 -79 -61q-36 -13 -101 -13h-25q80 -30 116.5 -117.5t36.5 -191.5v-82 q0 -134 -89.5 -222.5t-225.5 -88.5q-113 0 -172 39l-92 -123q-24 -31 -24 -57q0 -12 5 -23q18 -36 98 -36q12 0 25 1l299 21q15 1 29 1q35 0 64 -6q40 -7 74.5 -27.5t51.5 -62.5q15 -37 15 -87v-17q-3 -59 -14 -107.5t-39 -97.5t-71 -82t-114.5 -54t-165.5 -21 q-263 0 -268 260q0 66 30 133t72 102q-114 2 -133 72zM154 604q0 -51 14.5 -96t45 -84t84.5 -61.5t126 -22.5q48 0 94 16.5t85.5 47.5t64 83t24.5 117v82q0 305 -278 305q-124 0 -192 -79t-68 -226v-82zM172 -186q0 -62 19 -106t52.5 -66.5t70 -32.5t79.5 -10 q99 0 167.5 22.5t107.5 66.5t57.5 98.5t24.5 129.5q1 11 1 21q0 37 -12 63q-15 33 -45.5 48t-65.5 19q-19 2 -42 2q-18 0 -37 -1l-266 -19q-51 -46 -81 -108.5t-30 -126.5z" />
<glyph unicode="h" horiz-adv-x="942" d="M154 12v1409q0 5 3 8.5t6 4.5h3h22q13 -1 13 -13v-565q2 19 19 47.5t48 60t85.5 53t119.5 21.5q141 0 226 -86t85 -245v-695q0 -5 -3 -8t-6 -4h-3h-24q-13 0 -13 12v695q0 129 -69 206.5t-193 77.5q-121 0 -196.5 -74.5t-75.5 -209.5v-695q0 -5 -3.5 -8t-6.5 -4h-3h-22 q-12 0 -12 12z" />
<glyph unicode="i" horiz-adv-x="452" d="M154 1384v37q0 5 3 8.5t6 4.5h3h31q12 -1 12 -13v-37q0 -5 -3 -8t-6 -4h-3h-31q-12 0 -12 12zM158 12v1000q0 5 3 8t6 4h3h23q12 0 12 -12v-1000q0 -5 -3 -8t-6 -4h-3h-23q-12 0 -12 12z" />
<glyph unicode="j" horiz-adv-x="505" d="M-20 -326q0 13 12 13h24q113 0 164 62t51 183v1080q0 5 3.5 8t6.5 4h3h22q13 0 13 -12v-1080q0 -292 -263 -292h-24q-5 0 -8 3t-4 6v3v22zM227 1384v37q0 5 3.5 8.5t6.5 4.5h3h30q13 -1 13 -13v-37q0 -5 -3.5 -8t-6.5 -4h-3h-30q-13 0 -13 12z" />
<glyph unicode="k" horiz-adv-x="858" d="M143 12v1409q0 5 3.5 8.5t6.5 4.5h3h24q13 -1 13 -13v-913l415 510q2 3 4.5 4.5t3.5 1.5h2h37q17 0 7 -12l-314 -387l252 -451q71 -127 170 -127h16q5 0 8.5 -3t3.5 -6l1 -3v-23q-1 -12 -13 -12h-18q-68 0 -118 42t-93 118l-240 430l-124 -152v-426q0 -5 -3.5 -8t-6.5 -4 h-3h-24q-13 0 -13 12z" />
<glyph unicode="l" horiz-adv-x="528" d="M147 279v1142q0 5 3.5 8.5t6.5 4.5h3h22q13 -1 13 -13v-1142q0 -121 51 -183.5t164 -62.5h24q5 0 8 -3.5t4 -6.5v-3v-22q0 -12 -12 -12h-24q-263 0 -263 293z" />
<glyph unicode="m" horiz-adv-x="1363" d="M143 12v1000q0 5 3.5 8t6.5 4h3h24q13 0 13 -12v-156q54 182 272 182q35 0 70 -6.5t72.5 -22.5t67 -47t42.5 -75q17 46 47.5 78t68 46.5t69.5 20.5t65 6q278 0 278 -331v-695q0 -5 -3 -8t-6 -4h-3h-25q-12 0 -12 12v695q0 68 -10 117t-35 88t-71 59t-113 20 q-94 0 -159 -57t-65 -156v-766q0 -5 -3 -8t-6 -4h-3h-24q-13 0 -13 12v766q0 93 -55.5 153t-173.5 60q-127 0 -199.5 -75t-72.5 -209v-695q0 -5 -3.5 -8t-6.5 -4h-3h-24q-13 0 -13 12z" />
<glyph unicode="n" horiz-adv-x="933" d="M143 12v1000q0 5 3.5 8t6.5 4h3h22q12 0 12 -12v-156q24 82 90.5 132t182.5 50q141 0 226 -86t85 -245v-695q0 -5 -3 -8t-6 -4h-3h-25q-12 0 -12 12v695q0 129 -69 206.5t-193 77.5q-127 0 -200 -75t-73 -209v-695q0 -5 -3 -8t-6 -4h-3h-22q-13 0 -13 12z" />
<glyph unicode="o" horiz-adv-x="864" d="M102 352v305q0 177 78.5 279t239.5 102q160 0 237.5 -102t77.5 -279v-305q0 -164 -79 -265t-238 -101h2q-159 0 -238.5 101t-79.5 265zM152 352q0 -146 66.5 -232.5t201.5 -86.5q134 0 200 86.5t66 232.5v305q0 334 -268 334h2q-268 0 -268 -334v-305z" />
<glyph unicode="p" horiz-adv-x="940" d="M143 -422v1434q0 5 3.5 8t6.5 4h3h22q12 0 12 -12v-156q16 55 48 93.5t73 56.5t76 25t72 7q153 0 234 -91.5t81 -239.5v-385q0 -148 -78.5 -242t-224.5 -94q-17 0 -38.5 2.5t-59 12.5t-70 27.5t-64.5 52.5t-49 81v-584q0 -5 -3 -8t-6 -4h-3h-22q-13 0 -13 12zM188 299 q0 -30 8.5 -63t29.5 -70t52.5 -66t82 -48t112.5 -19q112 0 182 78.5t70 210.5v385q0 138 -72.5 211t-195.5 73q-120 0 -194.5 -74.5t-74.5 -209.5v-408z" />
<glyph unicode="q" horiz-adv-x="903" d="M102 303v406q0 152 79 240.5t229 88.5q105 0 179.5 -54.5t96.5 -127.5v156q0 5 3 8t6 4h3h23q12 0 12 -12v-1434q0 -5 -3 -8t-6 -4h-3h-23q-12 0 -12 12v584q-29 -84 -106 -130t-181 -46q-130 0 -213.5 90.5t-83.5 226.5zM150 303q0 -106 69 -188t180 -82q67 0 120 19.5 t84 49t51 68t27 71t7 62.5v404q0 116 -75 200t-205 84q-120 0 -189 -74.5t-69 -209.5v-404z" />
<glyph unicode="r" horiz-adv-x="544" d="M143 12v1000q0 5 3.5 8t6.5 4h3h24q13 0 13 -12v-152q15 65 85.5 121.5t184.5 56.5q5 0 8 -3t3 -6l1 -3v-22q0 -13 -12 -13q-51 0 -97 -15.5t-86 -47.5t-63.5 -88.5t-23.5 -130.5v-697q0 -5 -3.5 -8t-6.5 -4h-3h-24q-13 0 -13 12z" />
<glyph unicode="s" horiz-adv-x="851" d="M117 252q0 5 3 8t6 4h3l23 2q12 0 12 -12q9 -99 89.5 -160t197.5 -61q98 0 169.5 53t71.5 141q0 138 -153 219l-250 129q-142 73 -142 220q0 30 8.5 61.5t30.5 64.5t53.5 58.5t82.5 42t114 16.5q40 0 73.5 -4.5t72.5 -18.5t67.5 -37.5t52 -65.5t33.5 -99q1 -5 -1.5 -8 t-5.5 -3l-3 -1l-23 -4q-8 -2 -12 10q-25 99 -81.5 141.5t-172.5 42.5q-60 0 -106 -15t-70.5 -37t-40 -50t-20 -49.5t-4.5 -40.5q0 -124 102 -176l274 -142q168 -87 168 -254q0 -101 -81 -171t-214 -70q-65 0 -120 17.5t-91 45.5t-62 64t-38.5 70.5t-15.5 68.5z" />
<glyph unicode="t" d="M72 966v3v22q0 13 12 13h102v376q0 5 3 8.5t7 3.5l3 1h22q12 -1 12 -13v-376h240q5 0 8 -3t3 -7l1 -3v-22q0 -13 -12 -13h-240v-663q0 -246 238 -246h8q5 0 8.5 -3t4.5 -6v-3v-23q-1 -12 -13 -12h-8q-79 0 -136.5 24t-89 66t-45.5 92.5t-14 110.5v663h-102q-5 0 -8 3 t-4 7z" />
<glyph unicode="u" horiz-adv-x="923" d="M133 338v674q0 5 3 8t6 4h3h25q12 0 12 -12v-674q0 -132 67.5 -218.5t188.5 -86.5q71 0 128 23.5t89.5 57t54.5 75t30 74t8 56.5v693q0 5 3 8t6 4h3h22q13 0 13 -12v-1000q0 -5 -3.5 -8t-6.5 -4h-3h-22q-12 0 -12 12v172q-81 -198 -310 -198q-138 0 -221.5 95t-83.5 257z " />
<glyph unicode="v" horiz-adv-x="808" d="M46 1022q2 2 9 2h31q8 0 10 -10l283 -967l280 969q1 4 3.5 6t5.5 2h2h30h6l4 -4q1 -1 0 -2q0 -2 -1 -6l-295 -1000q-2 -5 -5.5 -8t-6.5 -4h-3h-45q-10 0 -14 12l-293 1000q-2 4 -2 7q0 2 1 3z" />
<glyph unicode="w" horiz-adv-x="1282" d="M61 1012q-2 4 -1.5 6.5t1.5 3.5q3 2 9 2h30q9 0 11 -10l217 -967l250 965q2 5 5.5 8t6.5 4h2h35q10 0 14 -12l256 -965l211 967l10 10h31h5l4 -4q1 -1 1 -2q0 -2 -2 -6l-225 -1000q-2 -5 -5.5 -8t-6.5 -4h-2h-41q-11 0 -15 12l-252 967l-248 -967q-2 -5 -5.5 -8t-6.5 -4 h-2h-41q-10 0 -14 12z" />
<glyph unicode="x" horiz-adv-x="811" d="M51 12l293 510l-252 490q-3 8 -0.5 10t8.5 2h31q10 0 16 -10l228 -451l243 451q3 5 6 7.5t5 2.5h2h37q16 0 8 -12l-268 -490l282 -510q2 -4 2 -6q0 -6 -10 -6h-35h-2l-10 10l-258 475l-266 -475q-3 -4 -7 -6.5t-7 -3.5h-3h-35q-10 0 -10 6q0 2 2 6z" />
<glyph unicode="y" horiz-adv-x="811" d="M47 -399v-23q0 -12 12 -12h25q103 0 160.5 46.5t85.5 145.5l346 1254q2 4 2 7q0 2 -2 3q-2 2 -8 2h-33q-8 0 -10 -8l-267 -969h-12l-235 967l-11 10h-30q-4 0 -6 -0.5t-4 -3t1 -8.5l242 -1000q2 -5 5.5 -8t5.5 -4h3h27l-59 -240q-19 -72 -65 -109.5t-136 -37.5h-25 q-5 0 -8 -3t-3 -6z" />
<glyph unicode="z" horiz-adv-x="888" d="M90 9v3v37q0 11 6 19l633 909h-600q-5 0 -8 3t-3 6l-1 3v23q0 12 12 12h633q5 0 8 -3t4 -6v-3v-35q0 -11 -6 -19l-633 -911h635q5 0 8 -3t4 -6v-3v-23q0 -12 -12 -12h-668q-5 0 -8 3t-4 6z" />
<glyph unicode="&#xa8;" horiz-adv-x="702" d="M96 1221v36q0 5 3 8.5t7 4.5h3h30q13 -1 13 -13v-36q0 -5 -3 -8.5t-7 -4.5h-3h-30q-13 1 -13 13zM459 1221v36q0 5 3 8.5t6 4.5h3h31q12 -1 12 -13v-36q0 -5 -3 -8.5t-6 -4.5h-3h-31q-12 1 -12 13z" />
<glyph unicode="&#xab;" horiz-adv-x="755" d="M92 485l131 244q1 3 3 5t3.5 3t3 1.5t2.5 0.5h1h28q4 0 5.5 -0.5t3.5 -3t-1 -8.5l-129 -242l129 -241q4 -13 -8 -13h-28q-9 1 -13 11zM326 485l131 244l12 10h29q4 0 5.5 -0.5t3.5 -3t-1 -8.5l-129 -242l129 -241q4 -13 -8 -13h-29q-8 1 -12 11z" />
<glyph unicode="&#xad;" d="M106 537v24q1 12 13 12h395q5 0 8 -3t4 -6v-3v-24q0 -13 -12 -13h-391q-5 0 -9.5 3t-5.5 7z" />
<glyph unicode="&#xbb;" horiz-adv-x="757" d="M130.5 737q2.5 2 8.5 2h29q8 0 12 -10l131 -244l-131 -243q-2 -4 -5 -7t-5 -3l-2 -1h-29q-12 0 -8 13l129 241l-129 242q-3 8 -0.5 10zM364.5 737q2.5 2 8.5 2h28q9 0 13 -10l131 -244l-131 -243q-2 -4 -5 -7t-5 -3l-3 -1h-28q-12 0 -8 13l129 241l-129 242q-3 8 -0.5 10 z" />
<glyph unicode="&#xbf;" horiz-adv-x="749" d="M43 324q-3 -146 78.5 -242t240.5 -96q267 0 295 270q0 5 -2.5 8t-4.5 4h-3h-26q-11 -2 -11 -14q-24 -221 -243 -221q-141 0 -209 81.5t-68 209.5q0 39 9 76t17.5 58.5t32.5 54t31.5 41t36.5 40.5q48 54 70 81t50 69t39 80t11 81v162q0 5 -2.5 8t-4.5 3l-3 1h-27 q-10 0 -10 -12v-162q0 -69 -34 -125t-101 -129q-58 -62 -87 -101t-51 -97.5t-24 -128.5zM315 1343q0 -5 3.5 -8t6.5 -3l3 -1h71q13 0 13 12v78q0 5 -3 8.5t-7 4.5h-3h-71q-13 -1 -13 -13v-78z" />
<glyph unicode="&#xc4;" horiz-adv-x="1150" d="M66 12l401 1409q2 5 6 8.5t7 4.5h3h49q13 -1 17 -13l387 -1409q0 -5 -3 -8t-6 -4h-3h-19q-14 0 -18 12l-154 543h-461l-157 -543q-2 -5 -6.5 -8t-8.5 -4h-4h-18q-12 0 -12 12zM281 604h442l-207 780h-16zM315 1589v37q0 5 3.5 8t6.5 4h3h30q13 0 13 -12v-37q0 -5 -3.5 -8 t-6.5 -3l-3 -1h-30q-13 0 -13 12zM678 1589v37q0 5 3 8t6 4h3h31q12 0 12 -12v-37q0 -5 -3 -8t-6 -3l-3 -1h-31q-12 0 -12 12z" />
<glyph unicode="&#xcb;" horiz-adv-x="905" d="M123 0v1434h665q5 0 8.5 -3t3.5 -7l1 -3v-22q-1 -13 -13 -13h-616v-630h473q5 0 8 -3t3 -7l1 -3v-20q0 -12 -12 -14h-473v-662h616q5 0 8.5 -3t3.5 -6l1 -3v-23q-1 -12 -13 -12h-665zM238 1589v37q0 5 3 8t6 4h3h31q12 0 12 -12v-37q0 -5 -3 -8t-6 -3l-3 -1h-31 q-12 0 -12 12zM600 1589v37q0 5 3 8t6 4h3h31q12 0 12 -12v-37q0 -5 -3 -8t-6 -3l-3 -1h-31q-12 0 -12 12z" />
<glyph unicode="&#xcf;" horiz-adv-x="358" d="M-72 1589v37q0 5 3 8t7 4h3h30q13 0 13 -12v-37q0 -5 -3 -8t-7 -3l-3 -1h-30q-13 0 -13 12zM113 12v1409q0 5 3 8.5t6 4.5h3h25q12 -1 12 -13v-1409q0 -5 -3 -8t-6 -4h-3h-25q-12 0 -12 12zM291 1589v37q0 5 3 8t6 4h3h31q12 0 12 -12v-37q0 -5 -3 -8t-6 -3l-3 -1h-31 q-12 0 -12 12z" />
<glyph unicode="&#xd6;" horiz-adv-x="1030" d="M109 420v594q0 434 389 434t389 -434v-594q0 -434 -389 -434t-389 434zM158 420q0 -201 86 -294t254 -93t254 93t86 294v594q0 201 -86 294t-254 93t-254 -93t-86 -294v-594zM297 1589v37q0 5 3 8t6 4h3h31q12 0 12 -12v-37q0 -5 -3 -8t-6 -3l-3 -1h-31q-12 0 -12 12z M659 1589v37q0 5 3.5 8t6.5 4h3h30q13 0 13 -12v-37q0 -5 -3.5 -8t-6.5 -3l-3 -1h-30q-13 0 -13 12z" />
<glyph unicode="&#xd8;" horiz-adv-x="1030" d="M109 420v594q0 434 389 434t389 -434v-594q0 -434 -389 -434t-389 434zM158 420q0 -201 86 -294t254 -93t254 93t86 294v594q0 201 -86 294t-254 93t-254 -93t-86 -294v-594zM223 -59l525 1554l12 10h28q4 0 6 -0.5t4 -3t-1 -8.5l-525 -1554q-2 -4 -5 -7t-5 -4h-2h-29 q-12 0 -8 13z" />
<glyph unicode="&#xdc;" horiz-adv-x="1032" d="M113 514q0 -528 391 -528q103 0 179.5 41t120.5 115.5t64.5 166.5t20.5 205v907q0 5 -3 8.5t-6 4.5h-3h-25q-12 -1 -12 -13v-907q0 -238 -87.5 -359.5t-248.5 -121.5q-176 0 -259 119t-83 362v907q0 5 -3 8.5t-6 4.5h-3h-25q-12 -1 -12 -13v-907zM291 1589v37q0 5 3 8 t6 4h3h31q12 0 12 -12v-37q0 -5 -3 -8t-6 -3l-3 -1h-31q-12 0 -12 12zM653 1589v37q0 5 3.5 8t6.5 4h3h30q13 0 13 -12v-37q0 -5 -3.5 -8t-6.5 -3l-3 -1h-30q-13 0 -13 12z" />
<glyph unicode="&#xdf;" horiz-adv-x="944" d="M150 12v1053q-2 52 2.5 99.5t23 101t49.5 92.5t86.5 64.5t130.5 25.5q81 0 144 -27.5t100 -74.5t55.5 -103.5t18.5 -118.5q0 -124 -58 -196.5t-135 -93.5q30 -5 61.5 -18t69 -42.5t66 -70.5t48 -108t19.5 -149q0 -222 -91 -334t-265 -112h-26q-5 0 -8.5 3t-4.5 6v3v23 q1 12 13 12h28q37 0 69.5 6t69 21.5t65.5 45t53 71.5t37 107.5t13 147.5q0 172 -82 267.5t-233 95.5h-31q-5 0 -8 3t-4 6v3v23q0 12 12 12h33q120 0 181 78.5t61 189.5q0 49 -15 96t-46 88.5t-85 67t-125 25.5q-245 0 -245 -336v-1053q0 -5 -3.5 -8t-6.5 -4h-3h-22 q-12 0 -12 12z" />
<glyph unicode="&#xe4;" horiz-adv-x="862" d="M68 238q0 111 51 172.5t178 91.5l356 82v123q0 132 -69 208t-195 76q-121 0 -183.5 -53t-62.5 -176q0 -5 -3 -8t-6 -4h-3h-25q-12 0 -12 12q0 135 78.5 205.5t216.5 70.5q144 0 228.5 -90.5t84.5 -240.5v-695q0 -5 -3 -8t-6 -4h-3h-24q-13 0 -13 12v160 q-31 -89 -109.5 -137.5t-193.5 -48.5q-132 0 -207 67.5t-75 184.5zM117 252q0 -219 233 -219q147 0 226 83.5t79 207.5v208l-364 -81q-57 -13 -94 -35t-53.5 -51t-21.5 -54t-5 -59zM201 1221v36q0 5 3 8.5t6 4.5h3h31q12 -1 12 -13v-36q0 -5 -3 -8.5t-6 -4.5h-3h-31 q-12 1 -12 13zM563 1221v36q0 5 3 8.5t6 4.5h3h31q12 -1 12 -13v-36q0 -5 -3 -8.5t-6 -4.5h-3h-31q-12 1 -12 13z" />
<glyph unicode="&#xeb;" horiz-adv-x="862" d="M104 285q0 -133 85.5 -216t230.5 -83q136 0 224.5 74.5t88.5 201.5q0 5 -3 8t-6 4h-3h-23q-12 0 -12 -12q0 -109 -72 -169t-194 -60q-126 0 -196 68t-70 182v192l567 111q6 1 9.5 4.5t3.5 6.5l1 3v168q0 124 -84 197t-213 73q-169 0 -251.5 -89t-82.5 -236v-428zM154 524 v187q0 53 14 100t44 88.5t85 66.5t129 25q116 0 189 -58.5t73 -170.5v-133zM211 1221v36q0 5 3 8.5t6 4.5h3h31q12 -1 12 -13v-36q0 -5 -3 -8.5t-6 -4.5h-3h-31q-12 1 -12 13zM573 1221v36q0 5 3.5 8.5t6.5 4.5h3h30q13 -1 13 -13v-36q0 -5 -3.5 -8.5t-6.5 -4.5h-3h-30 q-13 1 -13 13z" />
<glyph unicode="&#xf6;" horiz-adv-x="874" d="M109 352q0 -164 79 -265t238 -101h-2q159 0 238 101t79 265v305q0 177 -77.5 279t-237.5 102q-161 0 -239 -102t-78 -279v-305zM158 352v305q0 334 268 334h-2q268 0 268 -334v-305q0 -146 -66 -232.5t-200 -86.5q-135 0 -201.5 86.5t-66.5 232.5zM205 1221v36q0 5 3 8.5 t6 4.5h3h31q12 -1 12 -13v-36q0 -5 -3 -8.5t-6 -4.5h-3h-31q-12 1 -12 13zM567 1221v36q0 5 3.5 8.5t6.5 4.5h3h30q13 -1 13 -13v-36q0 -5 -3.5 -8.5t-6.5 -4.5h-3h-30q-13 1 -13 13z" />
<glyph unicode="&#xfc;" horiz-adv-x="892" d="M115 338v674q0 5 3 8t6 4h3h25q12 0 12 -12v-674q0 -132 67.5 -218.5t188.5 -86.5q71 0 128 23.5t89.5 57t54.5 75t29.5 73.5t7.5 57v693q0 5 3 8t6 4h3h23q12 0 12 -12v-1000q0 -5 -3 -8t-6 -4h-3h-23q-12 0 -12 12v172q-81 -198 -309 -198q-138 0 -221.5 95t-83.5 257z M240 1221v36q0 5 3 8.5t6 4.5h3h31q12 -1 12 -13v-36q0 -5 -3 -8.5t-6 -4.5h-3h-31q-12 1 -12 13zM602 1221v36q0 5 3 8.5t6 4.5h3h31q12 -1 12 -13v-36q0 -5 -3 -8.5t-6 -4.5h-3h-31q-12 1 -12 13z" />
<glyph unicode="&#x2000;" horiz-adv-x="885" />
<glyph unicode="&#x2001;" horiz-adv-x="1770" />
<glyph unicode="&#x2002;" horiz-adv-x="885" />
<glyph unicode="&#x2003;" horiz-adv-x="1770" />
<glyph unicode="&#x2004;" horiz-adv-x="590" />
<glyph unicode="&#x2005;" horiz-adv-x="442" />
<glyph unicode="&#x2006;" horiz-adv-x="295" />
<glyph unicode="&#x2007;" horiz-adv-x="295" />
<glyph unicode="&#x2008;" horiz-adv-x="221" />
<glyph unicode="&#x2009;" horiz-adv-x="354" />
<glyph unicode="&#x200a;" horiz-adv-x="98" />
<glyph unicode="&#x2010;" d="M106 537v24q1 12 13 12h395q5 0 8 -3t4 -6v-3v-24q0 -13 -12 -13h-391q-5 0 -9.5 3t-5.5 7z" />
<glyph unicode="&#x2011;" d="M106 537v24q1 12 13 12h395q5 0 8 -3t4 -6v-3v-24q0 -13 -12 -13h-391q-5 0 -9.5 3t-5.5 7z" />
<glyph unicode="&#x2012;" d="M106 537v24q1 12 13 12h395q5 0 8 -3t4 -6v-3v-24q0 -13 -12 -13h-391q-5 0 -9.5 3t-5.5 7z" />
<glyph unicode="&#x2013;" horiz-adv-x="851" d="M66 537v24q0 12 12 12h682q5 0 8 -3t4 -6v-3v-24q0 -13 -12 -13h-678q-5 0 -9 3t-5 7z" />
<glyph unicode="&#x2014;" horiz-adv-x="2256" d="M106 537v24q5 12 63 12h1926q25 0 39.5 -3t19.5 -6v-3v-24q0 -13 -59 -13h-1906q-24 0 -46 3t-27 7z" />
<glyph unicode="&#x2018;" horiz-adv-x="294" d="M80 1288v78q0 150 110 150h5q4 0 6 -2t2 -4v-3v-16q0 -8 -8 -8h-5q-28 0 -41.5 -23t-13.5 -82h29q12 0 12 -12v-78q0 -5 -3 -8t-6 -4h-3h-72q-12 0 -12 12z" />
<glyph unicode="&#x2019;" horiz-adv-x="294" d="M80 1282v2v16q0 9 8 9h4q28 0 41.5 22.5t13.5 81.5h-28q-13 0 -13 12v78q0 5 3 8.5t7 4.5h3h71q13 -1 13 -13v-78q0 -149 -111 -149h-4q-4 0 -6 2t-2 4z" />
<glyph unicode="&#x201a;" horiz-adv-x="315" d="M80 -113q0 9 8 9h4q28 0 41.5 22.5t13.5 81.5h-28q-13 0 -13 12v78q0 5 3 8t7 4h3h71q13 0 13 -12v-78q0 -149 -111 -149h-4q-4 0 -6 2t-2 4v2v16z" />
<glyph unicode="&#x201c;" horiz-adv-x="555" d="M121 1288v78q0 150 110 150h5q4 0 6 -2t2 -4v-3v-16q0 -8 -8 -8h-5q-28 0 -41.5 -23t-13.5 -82h29q12 0 12 -12v-78q0 -5 -3 -8t-6 -4h-3h-72q-12 0 -12 12zM283 1288v78q0 150 110 150h4q4 0 6 -2t3 -4v-3v-16q-1 -8 -9 -8h-4q-28 0 -41.5 -23t-13.5 -82h29q12 0 12 -12 v-78q0 -5 -3 -8t-6 -4h-3h-72q-12 0 -12 12z" />
<glyph unicode="&#x201d;" horiz-adv-x="555" d="M121 1282v2v16q0 9 8 9h4q28 0 41.5 22.5t13.5 81.5h-28q-13 0 -13 12v78q0 5 3.5 8.5t6.5 4.5h3h71q13 -1 13 -13v-78q0 -149 -111 -149h-4q-4 0 -6 2t-2 4zM283 1282v2v16q0 9 8 9h4q28 0 41.5 22.5t13.5 81.5h-28q-13 0 -13 12v78q0 5 3.5 8.5t6.5 4.5h3h71 q13 -1 13 -13v-78q0 -149 -111 -149h-4q-4 0 -6 2t-2 4z" />
<glyph unicode="&#x201e;" horiz-adv-x="477" d="M80 -113q0 9 8 9h4q28 0 41.5 22.5t13.5 81.5h-28q-13 0 -13 12v78q0 5 3 8t7 4h3h71q13 0 13 -12v-78q0 -149 -111 -149h-4q-4 0 -6 2t-2 4v2v16zM242 -113q0 9 8 9h4q28 0 41.5 22.5t13.5 81.5h-28q-13 0 -13 12v78q0 5 3 8t7 4h3h71q13 0 13 -12v-78q0 -149 -111 -149 h-4q-4 0 -6 2t-2 4v2v16z" />
<glyph unicode="&#x2026;" horiz-adv-x="950" d="M92 12v37q0 5 3 8t6 3l3 1h31q12 0 12 -12v-37q0 -5 -3 -8t-6 -4h-3h-31q-12 0 -12 12zM356 12v37q0 5 3 8t7 3l3 1h30q13 0 13 -12v-37q0 -5 -3 -8t-7 -4h-3h-30q-13 0 -13 12zM621 12v37q0 5 3 8t6 3l3 1h31q12 0 12 -12v-37q0 -5 -3 -8t-6 -4h-3h-31q-12 0 -12 12z " />
<glyph unicode="&#x202f;" horiz-adv-x="354" />
<glyph unicode="&#x205f;" horiz-adv-x="442" />
<glyph unicode="&#x20ac;" horiz-adv-x="1075" d="M125 535l6 20q4 12 12 12h86v240h-94q-14 0 -10 16l6 21q4 12 12 12h86v172q0 192 87.5 306t263.5 114q175 0 262.5 -114t89.5 -306q0 -5 -3 -8t-6 -4h-3h-25q-12 0 -12 12q0 103 -23 177t-66 116t-95.5 61t-118.5 19q-304 0 -304 -373v-172h416q14 0 10 -16l-6 -21 q-4 -12 -12 -12h-408v-240h340q15 0 11 -16l-6 -21q-4 -12 -13 -12h-332v-112q0 -193 83 -283t221 -90q136 0 219.5 90t83.5 283q0 5 3 8t6 4h3h23q12 0 12 -12q0 -192 -87.5 -306t-262.5 -114q-176 0 -263.5 114t-87.5 306v112h-94q-14 0 -10 17z" />
<glyph unicode="&#xe000;" horiz-adv-x="1024" d="M0 0v1024h1024v-1024h-1024z" />
</font>
</defs>
</svg>
